<?xml version="1.0" encoding="utf-8"?>
<!-- Generator: Adobe Illustrator 27.1.0, SVG Export Plug-In . SVG Version: 6.00 Build 0)  -->
<svg version="1.1" id="Filled" xmlns="http://www.w3.org/2000/svg" xmlns:xlink="http://www.w3.org/1999/xlink" x="0px" y="0px"
	 viewBox="0 0 512 512" style="enable-background:new 0 0 512 512;" xml:space="preserve">
<style type="text/css">
	.st0{fill:#262626;}
</style>
<path class="st0" d="M384,405.3v100.3c15.1-5.2,28.8-13.6,40.1-24.8l56.7-56.7c11.2-11.3,19.7-25,24.9-40.1H405.3
	C393.6,384,384,393.6,384,405.3z"/>
<path class="st0" d="M153,295c-16,16-25,37.7-25,60.4V384h28.7c22.6,0,44.3-9,60.4-25l241.7-241.7c17.7-17.7,17.7-46.3,0-64
	s-46.3-17.7-64,0L153,295z"/>
<path class="st0" d="M512,105.6c-3.6,15.8-11.6,30.3-23,41.9L247.2,389.2c-24,24.1-56.5,37.6-90.5,37.5H128
	c-23.6,0-42.7-19.1-42.7-42.7v-28.7c-0.1-34,13.4-66.6,37.5-90.5L364.5,23.2C375.9,11.7,390.4,3.7,406.1,0c-0.3,0-0.5,0-0.8,0H106.7
	C47.8,0.1,0.1,47.8,0,106.7v298.7C0.1,464.2,47.8,511.9,106.7,512h234.7V405.3c0-35.3,28.7-64,64-64H512V106.7
	C512,106.3,512,106,512,105.6z"/>
</svg>
